<mxfile host="Electron" agent="Mozilla/5.0 (Macintosh; Intel Mac OS X 10_15_7) AppleWebKit/537.36 (KHTML, like Gecko) draw.io/24.7.5 Chrome/126.0.6478.183 Electron/31.3.0 Safari/537.36" version="24.7.5">
  <diagram name="Page-1" id="SHD7UDlB_XUJz2UPsoch">
    <mxGraphModel dx="1114" dy="-7922" grid="1" gridSize="10" guides="1" tooltips="1" connect="1" arrows="1" fold="1" page="1" pageScale="1" pageWidth="850" pageHeight="1100" background="#FFFFFF" math="1" shadow="0">
      <root>
        <mxCell id="0" />
        <mxCell id="1" parent="0" />
        <mxCell id="KVR7Yg019UcxZeirtHPp-1" style="edgeStyle=orthogonalEdgeStyle;rounded=0;orthogonalLoop=1;jettySize=auto;html=1;entryX=0.5;entryY=1;entryDx=0;entryDy=0;fillColor=#60a917;strokeColor=#2D7600;strokeWidth=2;" parent="1" source="KVR7Yg019UcxZeirtHPp-2" target="KVR7Yg019UcxZeirtHPp-6" edge="1">
          <mxGeometry relative="1" as="geometry" />
        </mxCell>
        <mxCell id="KVR7Yg019UcxZeirtHPp-2" value="S" style="ellipse;whiteSpace=wrap;html=1;aspect=fixed;fontSize=24;fontFamily=Verdana;fillColor=#FFFFFF;strokeColor=#000000;fontColor=#000000;strokeWidth=2;" parent="1" vertex="1">
          <mxGeometry x="625" y="9326" width="80" height="80" as="geometry" />
        </mxCell>
        <mxCell id="KVR7Yg019UcxZeirtHPp-3" style="edgeStyle=orthogonalEdgeStyle;rounded=0;orthogonalLoop=1;jettySize=auto;html=1;exitX=1;exitY=0.5;exitDx=0;exitDy=0;strokeColor=#000000;strokeWidth=2;" parent="1" source="KVR7Yg019UcxZeirtHPp-2" target="KVR7Yg019UcxZeirtHPp-10" edge="1">
          <mxGeometry relative="1" as="geometry">
            <mxPoint x="931" y="9366" as="sourcePoint" />
          </mxGeometry>
        </mxCell>
        <mxCell id="KVR7Yg019UcxZeirtHPp-55" style="edgeStyle=orthogonalEdgeStyle;rounded=0;orthogonalLoop=1;jettySize=auto;html=1;exitX=0.5;exitY=0;exitDx=0;exitDy=0;entryX=0.5;entryY=1;entryDx=0;entryDy=0;shape=link;fillColor=#d5e8d4;strokeColor=#82b366;dashed=1;strokeWidth=2;" parent="1" source="KVR7Yg019UcxZeirtHPp-6" target="KVR7Yg019UcxZeirtHPp-54" edge="1">
          <mxGeometry relative="1" as="geometry" />
        </mxCell>
        <mxCell id="bNNJtNpSl1nT1dMzgXRB-13" style="edgeStyle=orthogonalEdgeStyle;rounded=0;orthogonalLoop=1;jettySize=auto;html=1;exitX=0;exitY=0.5;exitDx=0;exitDy=0;entryX=0;entryY=0.5;entryDx=0;entryDy=0;fillColor=#60a917;strokeColor=#2D7600;strokeWidth=2;" parent="1" source="KVR7Yg019UcxZeirtHPp-6" target="KVR7Yg019UcxZeirtHPp-2" edge="1">
          <mxGeometry relative="1" as="geometry">
            <Array as="points">
              <mxPoint x="600" y="9000" />
              <mxPoint x="600" y="9366" />
            </Array>
          </mxGeometry>
        </mxCell>
        <mxCell id="KVR7Yg019UcxZeirtHPp-6" value="V" style="ellipse;whiteSpace=wrap;html=1;aspect=fixed;fontSize=24;fontFamily=Verdana;fillColor=#d5e8d4;strokeColor=#82b366;strokeWidth=2;fontColor=#000000;" parent="1" vertex="1">
          <mxGeometry x="625" y="8960" width="80" height="80" as="geometry" />
        </mxCell>
        <mxCell id="KVR7Yg019UcxZeirtHPp-7" style="edgeStyle=orthogonalEdgeStyle;rounded=0;orthogonalLoop=1;jettySize=auto;html=1;entryX=0;entryY=0.5;entryDx=0;entryDy=0;strokeColor=#000000;strokeWidth=2;" parent="1" source="KVR7Yg019UcxZeirtHPp-10" target="KVR7Yg019UcxZeirtHPp-12" edge="1">
          <mxGeometry relative="1" as="geometry" />
        </mxCell>
        <mxCell id="p4bKfNp1hoSLx_ZoEvIt-3" style="edgeStyle=orthogonalEdgeStyle;rounded=0;orthogonalLoop=1;jettySize=auto;html=1;exitX=0.5;exitY=1;exitDx=0;exitDy=0;entryX=0.5;entryY=0;entryDx=0;entryDy=0;fillColor=#dae8fc;strokeColor=#6c8ebf;strokeWidth=2;" parent="1" source="KVR7Yg019UcxZeirtHPp-10" target="KVR7Yg019UcxZeirtHPp-14" edge="1">
          <mxGeometry relative="1" as="geometry" />
        </mxCell>
        <mxCell id="bNNJtNpSl1nT1dMzgXRB-3" style="edgeStyle=orthogonalEdgeStyle;rounded=0;orthogonalLoop=1;jettySize=auto;html=1;exitX=0.394;exitY=0.025;exitDx=0;exitDy=0;entryX=1;entryY=0.5;entryDx=0;entryDy=0;exitPerimeter=0;strokeWidth=2;strokeColor=#000000;" parent="1" source="KVR7Yg019UcxZeirtHPp-10" target="KVR7Yg019UcxZeirtHPp-35" edge="1">
          <mxGeometry relative="1" as="geometry" />
        </mxCell>
        <mxCell id="bNNJtNpSl1nT1dMzgXRB-4" style="edgeStyle=orthogonalEdgeStyle;rounded=0;orthogonalLoop=1;jettySize=auto;html=1;exitX=0.606;exitY=-0.012;exitDx=0;exitDy=0;entryX=0;entryY=0.5;entryDx=0;entryDy=0;exitPerimeter=0;strokeWidth=2;strokeColor=#000000;" parent="1" source="KVR7Yg019UcxZeirtHPp-10" target="KVR7Yg019UcxZeirtHPp-40" edge="1">
          <mxGeometry relative="1" as="geometry" />
        </mxCell>
        <mxCell id="KVR7Yg019UcxZeirtHPp-10" value="I" style="ellipse;whiteSpace=wrap;html=1;aspect=fixed;fontSize=24;fontFamily=Verdana;fillColor=#FFFFFF;strokeColor=#000000;fontColor=#000000;strokeWidth=2;" parent="1" vertex="1">
          <mxGeometry x="944.5" y="9326" width="80" height="80" as="geometry" />
        </mxCell>
        <mxCell id="KVR7Yg019UcxZeirtHPp-11" style="edgeStyle=orthogonalEdgeStyle;rounded=0;orthogonalLoop=1;jettySize=auto;html=1;exitX=0.5;exitY=1;exitDx=0;exitDy=0;entryX=0.5;entryY=1;entryDx=0;entryDy=0;strokeColor=#000000;strokeWidth=2;" parent="1" source="KVR7Yg019UcxZeirtHPp-12" target="KVR7Yg019UcxZeirtHPp-2" edge="1">
          <mxGeometry relative="1" as="geometry">
            <Array as="points">
              <mxPoint x="1300" y="9590" />
              <mxPoint x="665" y="9590" />
            </Array>
          </mxGeometry>
        </mxCell>
        <mxCell id="KVR7Yg019UcxZeirtHPp-12" value="R" style="ellipse;whiteSpace=wrap;html=1;aspect=fixed;fontSize=24;fontFamily=Verdana;fillColor=#FFFFFF;strokeColor=#000000;fontColor=#000000;strokeWidth=2;" parent="1" vertex="1">
          <mxGeometry x="1260" y="9326" width="80" height="80" as="geometry" />
        </mxCell>
        <mxCell id="KVR7Yg019UcxZeirtHPp-13" style="edgeStyle=orthogonalEdgeStyle;rounded=0;orthogonalLoop=1;jettySize=auto;html=1;fillColor=#dae8fc;strokeColor=#6c8ebf;exitX=0;exitY=0.5;exitDx=0;exitDy=0;strokeWidth=2;" parent="1" source="KVR7Yg019UcxZeirtHPp-14" edge="1">
          <mxGeometry relative="1" as="geometry">
            <mxPoint x="846.5" y="9370" as="targetPoint" />
            <mxPoint x="1109.5" y="9465" as="sourcePoint" />
          </mxGeometry>
        </mxCell>
        <mxCell id="KVR7Yg019UcxZeirtHPp-14" value="W" style="ellipse;whiteSpace=wrap;html=1;aspect=fixed;fontSize=24;fontFamily=Verdana;fillColor=#dae8fc;strokeColor=#6c8ebf;strokeWidth=2;fontColor=#000000;" parent="1" vertex="1">
          <mxGeometry x="944.5" y="9480" width="80" height="80" as="geometry" />
        </mxCell>
        <mxCell id="KVR7Yg019UcxZeirtHPp-15" style="edgeStyle=orthogonalEdgeStyle;rounded=0;orthogonalLoop=1;jettySize=auto;html=1;exitX=0.5;exitY=0;exitDx=0;exitDy=0;entryX=0.5;entryY=1;entryDx=0;entryDy=0;shape=link;dashed=1;fillColor=#e1d5e7;strokeColor=#9673a6;strokeWidth=2;" parent="1" source="KVR7Yg019UcxZeirtHPp-16" target="KVR7Yg019UcxZeirtHPp-37" edge="1">
          <mxGeometry relative="1" as="geometry" />
        </mxCell>
        <mxCell id="bNNJtNpSl1nT1dMzgXRB-9" style="edgeStyle=orthogonalEdgeStyle;rounded=0;orthogonalLoop=1;jettySize=auto;html=1;exitX=0.5;exitY=1;exitDx=0;exitDy=0;strokeWidth=2;strokeColor=#000000;entryX=0.5;entryY=0;entryDx=0;entryDy=0;" parent="1" source="KVR7Yg019UcxZeirtHPp-16" target="bNNJtNpSl1nT1dMzgXRB-7" edge="1">
          <mxGeometry relative="1" as="geometry">
            <mxPoint x="1224" y="9140" as="targetPoint" />
          </mxGeometry>
        </mxCell>
        <mxCell id="KVR7Yg019UcxZeirtHPp-16" value="Obs&lt;div style=&quot;font-size: 18px;&quot;&gt;deaths&lt;/div&gt;" style="ellipse;whiteSpace=wrap;html=1;aspect=fixed;fontSize=18;fontFamily=Verdana;fillColor=#e1d5e7;strokeColor=#9673a6;strokeWidth=2;fontColor=#000000;" parent="1" vertex="1">
          <mxGeometry x="1184" y="8960" width="80" height="80" as="geometry" />
        </mxCell>
        <mxCell id="KVR7Yg019UcxZeirtHPp-17" value="$$ \mu_j $$" style="text;html=1;align=center;verticalAlign=middle;whiteSpace=wrap;rounded=0;rotation=0;fontSize=16;fontFamily=Verdana;fontColor=#000000;strokeWidth=2;" parent="1" vertex="1">
          <mxGeometry x="1050" y="8967" width="20" height="30" as="geometry" />
        </mxCell>
        <mxCell id="KVR7Yg019UcxZeirtHPp-18" value="$$ \phi\nu_{jt} $$" style="text;html=1;align=center;verticalAlign=middle;whiteSpace=wrap;rounded=0;rotation=0;fontSize=16;fontFamily=Verdana;fontColor=#000000;strokeWidth=2;" parent="1" vertex="1">
          <mxGeometry x="625" y="9179" width="39" height="30" as="geometry" />
        </mxCell>
        <mxCell id="KVR7Yg019UcxZeirtHPp-19" value="$$\Lambda_{jt} + \Psi_{jt} $$" style="text;html=1;align=center;verticalAlign=middle;whiteSpace=wrap;rounded=0;rotation=0;fontSize=16;fontFamily=Verdana;fontColor=#000000;strokeWidth=2;" parent="1" vertex="1">
          <mxGeometry x="779.5" y="9333" width="94" height="30" as="geometry" />
        </mxCell>
        <mxCell id="KVR7Yg019UcxZeirtHPp-21" value="$$ \gamma $$" style="text;html=1;align=center;verticalAlign=middle;whiteSpace=wrap;rounded=0;rotation=0;fontSize=16;fontFamily=Verdana;fontColor=#000000;strokeWidth=2;" parent="1" vertex="1">
          <mxGeometry x="1114" y="9333" width="70" height="30" as="geometry" />
        </mxCell>
        <mxCell id="KVR7Yg019UcxZeirtHPp-22" value="$$ \omega $$" style="text;html=1;align=center;verticalAlign=middle;whiteSpace=wrap;rounded=0;rotation=0;fontSize=16;fontFamily=Verdana;fontColor=#000000;strokeWidth=2;" parent="1" vertex="1">
          <mxGeometry x="560" y="9179" width="39" height="30" as="geometry" />
        </mxCell>
        <mxCell id="KVR7Yg019UcxZeirtHPp-23" value="$$ \varepsilon $$" style="text;html=1;align=center;verticalAlign=middle;whiteSpace=wrap;rounded=0;rotation=0;fontSize=16;fontFamily=Verdana;fontColor=#000000;strokeWidth=2;" parent="1" vertex="1">
          <mxGeometry x="965" y="9595" width="39" height="30" as="geometry" />
        </mxCell>
        <mxCell id="KVR7Yg019UcxZeirtHPp-26" value="$$ d_j $$" style="text;html=1;align=center;verticalAlign=middle;whiteSpace=wrap;rounded=0;rotation=0;fontSize=16;fontFamily=Verdana;fillColor=none;fontColor=#B3B3B3;strokeColor=none;strokeWidth=2;" parent="1" vertex="1">
          <mxGeometry x="690" y="9299" width="20" height="30" as="geometry" />
        </mxCell>
        <mxCell id="KVR7Yg019UcxZeirtHPp-27" value="" style="endArrow=classic;html=1;rounded=0;fillColor=#f5f5f5;strokeColor=#B3B3B3;strokeWidth=2;" parent="1" edge="1">
          <mxGeometry width="50" height="50" relative="1" as="geometry">
            <mxPoint x="696" y="9341" as="sourcePoint" />
            <mxPoint x="730" y="9310" as="targetPoint" />
          </mxGeometry>
        </mxCell>
        <mxCell id="KVR7Yg019UcxZeirtHPp-33" style="edgeStyle=orthogonalEdgeStyle;rounded=0;orthogonalLoop=1;jettySize=auto;html=1;exitX=0.5;exitY=0;exitDx=0;exitDy=0;entryX=0.5;entryY=1;entryDx=0;entryDy=0;strokeColor=#000000;strokeWidth=2;" parent="1" source="KVR7Yg019UcxZeirtHPp-35" target="KVR7Yg019UcxZeirtHPp-43" edge="1">
          <mxGeometry relative="1" as="geometry" />
        </mxCell>
        <mxCell id="KVR7Yg019UcxZeirtHPp-35" value="&lt;div style=&quot;font-size: 18px;&quot;&gt;Cases&lt;/div&gt;&lt;div style=&quot;font-size: 18px;&quot;&gt;sym&lt;/div&gt;" style="ellipse;whiteSpace=wrap;html=1;aspect=fixed;fontSize=18;fontFamily=Verdana;fillColor=#f8cecc;strokeColor=#b85450;strokeWidth=2;fontColor=#000000;" parent="1" vertex="1">
          <mxGeometry x="864.5" y="9145" width="80" height="80" as="geometry" />
        </mxCell>
        <mxCell id="KVR7Yg019UcxZeirtHPp-36" value="Reported cases" style="whiteSpace=wrap;html=1;aspect=fixed;fillColor=#e1d5e7;strokeColor=#9673a6;strokeWidth=2;fontColor=#000000;" parent="1" vertex="1">
          <mxGeometry x="864.5" y="8810" width="80" height="80" as="geometry" />
        </mxCell>
        <mxCell id="KVR7Yg019UcxZeirtHPp-37" value="Reported deaths" style="whiteSpace=wrap;html=1;aspect=fixed;fillColor=#e1d5e7;strokeColor=#9673a6;strokeWidth=2;fontColor=#000000;" parent="1" vertex="1">
          <mxGeometry x="1184" y="8810" width="80" height="80" as="geometry" />
        </mxCell>
        <mxCell id="KVR7Yg019UcxZeirtHPp-38" value="$$ \sigma $$" style="text;html=1;align=center;verticalAlign=middle;whiteSpace=wrap;rounded=0;rotation=0;fontSize=16;fontFamily=Verdana;fontColor=#000000;strokeWidth=2;" parent="1" vertex="1">
          <mxGeometry x="948.5" y="9240" width="20" height="30" as="geometry" />
        </mxCell>
        <mxCell id="KVR7Yg019UcxZeirtHPp-40" value="&lt;div style=&quot;font-size: 18px;&quot;&gt;Cases&lt;/div&gt;&lt;div style=&quot;font-size: 18px;&quot;&gt;asym&lt;/div&gt;" style="ellipse;whiteSpace=wrap;html=1;aspect=fixed;fontSize=18;fontFamily=Verdana;fillColor=#f8cecc;strokeColor=#b85450;strokeWidth=2;fontColor=#000000;" parent="1" vertex="1">
          <mxGeometry x="1024.5" y="9145" width="80" height="80" as="geometry" />
        </mxCell>
        <mxCell id="KVR7Yg019UcxZeirtHPp-41" value="$$ (1-\sigma) $$" style="text;html=1;align=center;verticalAlign=middle;whiteSpace=wrap;rounded=0;rotation=0;fontSize=16;fontFamily=Verdana;fontColor=#000000;strokeWidth=2;" parent="1" vertex="1">
          <mxGeometry x="1012.5" y="9240" width="37" height="30" as="geometry" />
        </mxCell>
        <mxCell id="KVR7Yg019UcxZeirtHPp-42" style="edgeStyle=orthogonalEdgeStyle;rounded=0;orthogonalLoop=1;jettySize=auto;html=1;exitX=0.5;exitY=0;exitDx=0;exitDy=0;entryX=0.5;entryY=1;entryDx=0;entryDy=0;shape=link;dashed=1;fillColor=#e1d5e7;strokeColor=#9673a6;strokeWidth=2;" parent="1" source="KVR7Yg019UcxZeirtHPp-43" target="KVR7Yg019UcxZeirtHPp-36" edge="1">
          <mxGeometry relative="1" as="geometry" />
        </mxCell>
        <mxCell id="bNNJtNpSl1nT1dMzgXRB-8" style="edgeStyle=orthogonalEdgeStyle;rounded=0;orthogonalLoop=1;jettySize=auto;html=1;exitX=1;exitY=0.5;exitDx=0;exitDy=0;strokeWidth=2;strokeColor=#000000;" parent="1" source="KVR7Yg019UcxZeirtHPp-43" target="KVR7Yg019UcxZeirtHPp-16" edge="1">
          <mxGeometry relative="1" as="geometry" />
        </mxCell>
        <mxCell id="KVR7Yg019UcxZeirtHPp-43" value="Obs&lt;div style=&quot;font-size: 18px;&quot;&gt;cases&lt;/div&gt;" style="ellipse;whiteSpace=wrap;html=1;aspect=fixed;fontSize=18;fontFamily=Verdana;fillColor=#e1d5e7;strokeColor=#9673a6;strokeWidth=2;fontColor=#000000;" parent="1" vertex="1">
          <mxGeometry x="864.5" y="8960" width="80" height="80" as="geometry" />
        </mxCell>
        <mxCell id="KVR7Yg019UcxZeirtHPp-44" value="$$ 1/\rho $$" style="text;html=1;align=center;verticalAlign=middle;whiteSpace=wrap;rounded=0;rotation=0;fontSize=16;fontFamily=Verdana;fontColor=#000000;strokeWidth=2;" parent="1" vertex="1">
          <mxGeometry x="871" y="9104" width="20" height="30" as="geometry" />
        </mxCell>
        <mxCell id="KVR7Yg019UcxZeirtHPp-45" style="edgeStyle=orthogonalEdgeStyle;rounded=0;orthogonalLoop=1;jettySize=auto;html=1;shape=link;dashed=1;strokeColor=none;strokeWidth=2;" parent="1" edge="1">
          <mxGeometry relative="1" as="geometry">
            <mxPoint x="986.25" y="9059" as="targetPoint" />
            <mxPoint x="986.25" y="9159" as="sourcePoint" />
          </mxGeometry>
        </mxCell>
        <mxCell id="KVR7Yg019UcxZeirtHPp-46" value="" style="endArrow=none;dashed=1;html=1;rounded=0;strokeColor=#808080;dashPattern=8 8;fontColor=#808080;strokeWidth=2;" parent="1" edge="1">
          <mxGeometry width="50" height="50" relative="1" as="geometry">
            <mxPoint x="547" y="9090" as="sourcePoint" />
            <mxPoint x="1409" y="9090" as="targetPoint" />
          </mxGeometry>
        </mxCell>
        <UserObject label="Observed" placeholders="1" name="Variable" id="KVR7Yg019UcxZeirtHPp-47">
          <mxCell style="text;html=1;strokeColor=none;fillColor=none;align=center;verticalAlign=middle;whiteSpace=wrap;overflow=hidden;fontSize=16;fontColor=#808080;strokeWidth=2;" parent="1" vertex="1">
            <mxGeometry x="1321" y="9056" width="80" height="20" as="geometry" />
          </mxCell>
        </UserObject>
        <UserObject label="Not observed" placeholders="1" name="Variable" id="KVR7Yg019UcxZeirtHPp-48">
          <mxCell style="text;html=1;strokeColor=none;fillColor=none;align=center;verticalAlign=middle;whiteSpace=wrap;overflow=hidden;fontSize=16;fontColor=#808080;strokeWidth=2;" parent="1" vertex="1">
            <mxGeometry x="1291" y="9100" width="115" height="20" as="geometry" />
          </mxCell>
        </UserObject>
        <mxCell id="KVR7Yg019UcxZeirtHPp-54" value="Reported vaccinations" style="whiteSpace=wrap;html=1;aspect=fixed;fillColor=#d5e8d4;strokeColor=#82b366;strokeWidth=2;fontColor=#000000;" parent="1" vertex="1">
          <mxGeometry x="625" y="8810" width="80" height="80" as="geometry" />
        </mxCell>
        <mxCell id="p4bKfNp1hoSLx_ZoEvIt-4" value="$$ \zeta $$" style="text;html=1;align=center;verticalAlign=middle;whiteSpace=wrap;rounded=0;rotation=0;fontSize=16;fontFamily=Verdana;fillColor=none;fontColor=#000000;strokeColor=none;strokeWidth=2;" parent="1" vertex="1">
          <mxGeometry x="958.5" y="9423" width="20" height="30" as="geometry" />
        </mxCell>
        <mxCell id="dQhRyLhaFYCb4iO9fNfd-2" value="" style="endArrow=classic;html=1;rounded=0;fillColor=#f5f5f5;strokeColor=#000000;strokeWidth=2;exitX=1;exitY=0.5;exitDx=0;exitDy=0;" parent="1" source="KVR7Yg019UcxZeirtHPp-14" edge="1">
          <mxGeometry width="50" height="50" relative="1" as="geometry">
            <mxPoint x="1014.5" y="9545" as="sourcePoint" />
            <mxPoint x="1100" y="9520" as="targetPoint" />
          </mxGeometry>
        </mxCell>
        <mxCell id="dQhRyLhaFYCb4iO9fNfd-3" value="$$ \delta $$" style="text;html=1;align=center;verticalAlign=middle;whiteSpace=wrap;rounded=0;rotation=0;fontSize=16;fontFamily=Verdana;fontColor=#000000;strokeWidth=2;" parent="1" vertex="1">
          <mxGeometry x="1030" y="9487" width="51.5" height="30" as="geometry" />
        </mxCell>
        <mxCell id="bNNJtNpSl1nT1dMzgXRB-7" value="&lt;div style=&quot;font-size: 18px;&quot;&gt;Deaths&lt;/div&gt;" style="ellipse;whiteSpace=wrap;html=1;aspect=fixed;fontSize=18;fontFamily=Verdana;fillColor=#f8cecc;strokeColor=#b85450;strokeWidth=2;fontColor=#000000;" parent="1" vertex="1">
          <mxGeometry x="1184" y="9145" width="80" height="80" as="geometry" />
        </mxCell>
        <mxCell id="bNNJtNpSl1nT1dMzgXRB-14" value="$$b_j$$" style="text;html=1;align=center;verticalAlign=middle;whiteSpace=wrap;rounded=0;rotation=0;fontSize=16;fontFamily=Verdana;fillColor=none;fontColor=#B3B3B3;strokeColor=none;strokeWidth=2;" parent="1" vertex="1">
          <mxGeometry x="593" y="9386" width="20" height="30" as="geometry" />
        </mxCell>
        <mxCell id="bNNJtNpSl1nT1dMzgXRB-15" value="" style="endArrow=classic;html=1;rounded=0;fillColor=#f5f5f5;strokeColor=#B3B3B3;strokeWidth=2;" parent="1" edge="1">
          <mxGeometry width="50" height="50" relative="1" as="geometry">
            <mxPoint x="599" y="9427" as="sourcePoint" />
            <mxPoint x="633" y="9396" as="targetPoint" />
          </mxGeometry>
        </mxCell>
        <mxCell id="bNNJtNpSl1nT1dMzgXRB-16" value="$$ d_j $$" style="text;html=1;align=center;verticalAlign=middle;whiteSpace=wrap;rounded=0;rotation=0;fontSize=16;fontFamily=Verdana;fillColor=none;fontColor=#B3B3B3;strokeColor=none;strokeWidth=2;" parent="1" vertex="1">
          <mxGeometry x="690" y="8930" width="20" height="30" as="geometry" />
        </mxCell>
        <mxCell id="bNNJtNpSl1nT1dMzgXRB-17" value="" style="endArrow=classic;html=1;rounded=0;fillColor=#f5f5f5;strokeColor=#B3B3B3;strokeWidth=2;" parent="1" edge="1">
          <mxGeometry width="50" height="50" relative="1" as="geometry">
            <mxPoint x="696" y="8972" as="sourcePoint" />
            <mxPoint x="730" y="8941" as="targetPoint" />
          </mxGeometry>
        </mxCell>
        <mxCell id="bNNJtNpSl1nT1dMzgXRB-18" value="$$ d_j $$" style="text;html=1;align=center;verticalAlign=middle;whiteSpace=wrap;rounded=0;rotation=0;fontSize=16;fontFamily=Verdana;fillColor=none;fontColor=#B3B3B3;strokeColor=none;strokeWidth=2;" parent="1" vertex="1">
          <mxGeometry x="1010" y="9299" width="20" height="30" as="geometry" />
        </mxCell>
        <mxCell id="bNNJtNpSl1nT1dMzgXRB-19" value="" style="endArrow=classic;html=1;rounded=0;fillColor=#f5f5f5;strokeColor=#B3B3B3;strokeWidth=2;" parent="1" edge="1">
          <mxGeometry width="50" height="50" relative="1" as="geometry">
            <mxPoint x="1016" y="9341" as="sourcePoint" />
            <mxPoint x="1050" y="9310" as="targetPoint" />
          </mxGeometry>
        </mxCell>
        <mxCell id="bNNJtNpSl1nT1dMzgXRB-21" value="$$ d_j $$" style="text;html=1;align=center;verticalAlign=middle;whiteSpace=wrap;rounded=0;rotation=0;fontSize=16;fontFamily=Verdana;fillColor=none;fontColor=#B3B3B3;strokeColor=none;strokeWidth=2;" parent="1" vertex="1">
          <mxGeometry x="1328.5" y="9299" width="20" height="30" as="geometry" />
        </mxCell>
        <mxCell id="bNNJtNpSl1nT1dMzgXRB-22" value="" style="endArrow=classic;html=1;rounded=0;fillColor=#f5f5f5;strokeColor=#B3B3B3;strokeWidth=2;" parent="1" edge="1">
          <mxGeometry width="50" height="50" relative="1" as="geometry">
            <mxPoint x="1333.5" y="9342" as="sourcePoint" />
            <mxPoint x="1367.5" y="9311" as="targetPoint" />
          </mxGeometry>
        </mxCell>
      </root>
    </mxGraphModel>
  </diagram>
</mxfile>
